<svg width="860" height="220" viewBox="0 0 860 220" fill="none" xmlns="http://www.w3.org/2000/svg">
  <rect width="860" height="220" rx="32" fill="none"/>
  <path d="M120.395 146.31C96.2879 146.31 76 126.375 76 109.956C76 93.5385 96.4055 73.6036 120.865 73.6036C143.212 73.6036 156.444 84.6061 165.728 98.7095L139.033 111.857C134.805 105.1 128.93 100.339 120.629 100.339C111.58 100.339 105.237 105.922 105.237 110.093C105.237 114.264 111.345 119.576 120.277 119.576C128.812 119.576 134.687 114.954 139.151 108.197L165.494 121.48C155.74 135.72 141.686 146.31 120.395 146.31Z" fill="white"/>
  <path d="M224.537 75.6914H259.056L311.482 144H278.729L269.796 130.581H212.481L203.431 144H170.913L224.537 75.6914ZM226.534 109.698H255.18L240.962 89.6306L226.534 109.698Z" fill="#F48221"/>
  <path d="M333.339 75.6914H424.184V100.475H364.152V102.97H418.427V117.891H364.152V119.811H425.123V144H333.339V75.6914Z" fill="white"/>
  <path d="M503.865 146.31C479.758 146.31 459.47 126.375 459.47 109.956C459.47 93.5385 479.876 73.6036 504.335 73.6036C526.682 73.6036 539.914 84.6061 549.198 98.7095L522.504 111.857C518.275 105.1 512.401 100.339 504.1 100.339C495.05 100.339 488.707 105.922 488.707 110.093C488.707 114.264 494.815 119.576 503.747 119.576C512.283 119.576 518.157 114.954 522.621 108.197L548.964 121.48C539.21 135.72 525.156 146.31 503.865 146.31Z" fill="white"/>
  <path d="M630.915 146.31C592.403 146.31 565.943 127.081 565.943 109.956C565.943 92.8318 592.403 73.6036 630.915 73.6036C669.427 73.6036 695.888 92.8318 695.888 109.956C695.888 127.081 669.427 146.31 630.915 146.31ZM630.915 119.576C650.313 119.576 666.063 114.972 666.063 109.956C666.063 104.941 650.313 100.339 630.915 100.339C611.517 100.339 595.768 104.941 595.768 109.956C595.768 114.972 611.517 119.576 630.915 119.576Z" fill="white"/>
  <path d="M723.524 75.6914H783.897C817.355 75.6914 836 92.398 836 109.846C836 127.295 817.355 144 783.897 144H723.524V75.6914ZM782.723 119.358C796.471 119.358 805.07 115.132 805.07 109.846C805.07 104.56 796.471 100.334 782.723 100.334H754.336V119.358H782.723Z" fill="white"/>
  <text x="121" y="188" fill="white" font-family="Segoe UI, Arial, sans-serif" font-size="26" font-weight="700" letter-spacing="6">CUISINES &amp; MENUISERIES</text>
</svg>
