<svg xmlns="http://www.w3.org/2000/svg" xmlns:xlink="http://www.w3.org/1999/xlink" width="1500" zoomAndPan="magnify" viewBox="0 0 1125 449.999984" height="600" preserveAspectRatio="xMidYMid meet" version="1.0"><defs><g/><clipPath id="60ce6e1104"><path d="M 0.839844 0.320312 L 988 0.320312 L 988 320 L 0.839844 320 Z M 0.839844 0.320312 " clip-rule="nonzero"/></clipPath><clipPath id="566370d6da"><rect x="0" width="988" y="0" height="320"/></clipPath><clipPath id="df1969cc54"><rect x="0" width="202" y="0" height="316"/></clipPath><clipPath id="120e2d5b03"><path d="M 286.328125 216.097656 L 321.148438 216.097656 L 321.148438 250.46875 L 286.328125 250.46875 Z M 286.328125 216.097656 " clip-rule="nonzero"/></clipPath><clipPath id="32c1e684c3"><path d="M 0.328125 0.0976562 L 35.148438 0.0976562 L 35.148438 34.46875 L 0.328125 34.46875 Z M 0.328125 0.0976562 " clip-rule="nonzero"/></clipPath><clipPath id="afc38c2afb"><rect x="0" width="36" y="0" height="35"/></clipPath><clipPath id="8e8ac30a09"><path d="M 9 290 L 995.398438 290 L 995.398438 345.199219 L 9 345.199219 Z M 9 290 " clip-rule="nonzero"/></clipPath><clipPath id="4415705a54"><rect x="0" width="987" y="0" height="56"/></clipPath><clipPath id="07316560b1"><rect x="0" width="996" y="0" height="346"/></clipPath></defs><g transform="matrix(1, 0, 0, 1, 69, 52)"><g clip-path="url(#07316560b1)"><g clip-path="url(#60ce6e1104)"><g transform="matrix(1, 0, 0, 1, -0.000000000000014211, -0.000000000000014211)"><g clip-path="url(#566370d6da)"><g fill="#ffffff" fill-opacity="1"><g transform="translate(0.925342, 252.927376)"><g><path d="M 106.265625 3.71875 C 92.984375 3.71875 80.5 1.285156 68.8125 -3.578125 C 57.125 -8.453125 46.984375 -15.140625 38.390625 -23.640625 C 29.796875 -32.140625 22.972656 -42.28125 17.921875 -54.0625 C 12.878906 -65.84375 10.359375 -78.640625 10.359375 -92.453125 L 10.359375 -92.984375 C 10.359375 -106.441406 12.835938 -119.101562 17.796875 -130.96875 C 22.753906 -142.84375 29.53125 -153.070312 38.125 -161.65625 C 46.71875 -170.25 57.035156 -177.066406 69.078125 -182.109375 C 81.117188 -187.160156 94.132812 -189.6875 108.125 -189.6875 C 127.082031 -189.6875 142.9375 -186.054688 155.6875 -178.796875 C 168.4375 -171.535156 178.882812 -162.328125 187.03125 -151.171875 L 148.25 -121.140625 C 142.9375 -127.691406 137.046875 -132.960938 130.578125 -136.953125 C 124.109375 -140.941406 116.445312 -142.9375 107.59375 -142.9375 C 101.039062 -142.9375 95.0625 -141.609375 89.65625 -138.953125 C 84.257812 -136.296875 79.613281 -132.75 75.71875 -128.3125 C 71.820312 -123.882812 68.765625 -118.660156 66.546875 -112.640625 C 64.335938 -106.617188 63.234375 -100.242188 63.234375 -93.515625 L 63.234375 -92.984375 C 63.234375 -86.078125 64.335938 -79.566406 66.546875 -73.453125 C 68.765625 -67.347656 71.820312 -62.082031 75.71875 -57.65625 C 79.613281 -53.226562 84.257812 -49.726562 89.65625 -47.15625 C 95.0625 -44.582031 101.039062 -43.296875 107.59375 -43.296875 C 117.15625 -43.296875 125.171875 -45.378906 131.640625 -49.546875 C 138.109375 -53.710938 144.085938 -59.160156 149.578125 -65.890625 L 188.359375 -38.25 C 179.679688 -26.207031 168.921875 -16.203125 156.078125 -8.234375 C 143.242188 -0.265625 126.640625 3.71875 106.265625 3.71875 Z M 106.265625 3.71875 "/></g></g></g><g fill="#ffffff" fill-opacity="1"><g transform="translate(195.143326, 252.927376)"><g/></g></g><g fill="#ffffff" fill-opacity="1"><g transform="translate(268.730456, 252.927376)"><g/></g></g><g fill="#ffffff" fill-opacity="1"><g transform="translate(342.317586, 252.927376)"><g/></g></g><g fill="#ffffff" fill-opacity="1"><g transform="translate(415.915991, 252.927376)"><g><path d="M 89.53125 3.1875 C 73.0625 3.1875 57.296875 0.578125 42.234375 -4.640625 C 27.179688 -9.867188 13.898438 -17.53125 2.390625 -27.625 L 31.078125 -61.90625 C 40.296875 -54.644531 49.992188 -49.109375 60.171875 -45.296875 C 70.359375 -41.484375 80.765625 -39.578125 91.390625 -39.578125 C 98.472656 -39.578125 103.828125 -40.726562 107.453125 -43.03125 C 111.085938 -45.34375 112.90625 -48.445312 112.90625 -52.34375 L 112.90625 -52.875 C 112.90625 -56.769531 110.820312 -60 106.65625 -62.5625 C 102.5 -65.132812 94.046875 -67.925781 81.296875 -70.9375 C 71.378906 -73.238281 62.125 -75.757812 53.53125 -78.5 C 44.9375 -81.25 37.539062 -84.789062 31.34375 -89.125 C 25.144531 -93.46875 20.226562 -98.867188 16.59375 -105.328125 C 12.96875 -111.796875 11.15625 -119.722656 11.15625 -129.109375 L 11.15625 -129.640625 C 11.15625 -138.328125 12.835938 -146.300781 16.203125 -153.5625 C 19.566406 -160.820312 24.300781 -167.0625 30.40625 -172.28125 C 36.519531 -177.507812 44.050781 -181.628906 53 -184.640625 C 61.945312 -187.648438 72 -189.15625 83.15625 -189.15625 C 98.914062 -189.15625 113.082031 -187.070312 125.65625 -182.90625 C 138.238281 -178.75 149.578125 -172.597656 159.671875 -164.453125 L 133.90625 -128.046875 C 125.394531 -134.078125 116.625 -138.640625 107.59375 -141.734375 C 98.5625 -144.835938 89.972656 -146.390625 81.828125 -146.390625 C 75.628906 -146.390625 70.976562 -145.238281 67.875 -142.9375 C 64.78125 -140.632812 63.234375 -137.800781 63.234375 -134.4375 L 63.234375 -133.90625 C 63.234375 -129.644531 65.398438 -126.273438 69.734375 -123.796875 C 74.078125 -121.316406 82.710938 -118.660156 95.640625 -115.828125 C 116.710938 -111.222656 133.492188 -104.757812 145.984375 -96.4375 C 158.472656 -88.113281 164.71875 -75.273438 164.71875 -57.921875 L 164.71875 -57.390625 C 164.71875 -47.992188 162.898438 -39.53125 159.265625 -32 C 155.640625 -24.476562 150.550781 -18.101562 144 -12.875 C 137.445312 -7.65625 129.519531 -3.671875 120.21875 -0.921875 C 110.914062 1.816406 100.6875 3.1875 89.53125 3.1875 Z M 89.53125 3.1875 "/></g></g></g><g fill="#ffffff" fill-opacity="1"><g transform="translate(589.124738, 252.927376)"><g><path d="M 72 -198.71875 L 100.6875 -241.765625 L 148.78125 -227.15625 L 109.453125 -198.71875 Z M 16.46875 0 L 16.46875 -185.96875 L 166.046875 -185.96875 L 166.046875 -142.40625 L 67.484375 -142.40625 L 67.484375 -113.96875 L 156.75 -113.96875 L 156.75 -73.328125 L 67.484375 -73.328125 L 67.484375 -43.828125 L 167.375 -43.828125 L 167.375 0 Z M 16.46875 0 "/></g></g></g><g fill="#ffffff" fill-opacity="1"><g transform="translate(765.255697, 252.927376)"><g><path d="M 110.25 3.71875 C 95.90625 3.71875 82.625 1.195312 70.40625 -3.84375 C 58.1875 -8.894531 47.644531 -15.710938 38.78125 -24.296875 C 29.925781 -32.890625 22.972656 -43.078125 17.921875 -54.859375 C 12.878906 -66.640625 10.359375 -79.171875 10.359375 -92.453125 L 10.359375 -92.984375 C 10.359375 -106.265625 12.925781 -118.796875 18.0625 -130.578125 C 23.195312 -142.359375 30.191406 -152.628906 39.046875 -161.390625 C 47.910156 -170.160156 58.492188 -177.066406 70.796875 -182.109375 C 83.109375 -187.160156 96.4375 -189.6875 110.78125 -189.6875 C 125.125 -189.6875 138.40625 -187.160156 150.625 -182.109375 C 162.851562 -177.066406 173.394531 -170.25 182.25 -161.65625 C 191.101562 -153.070312 198.050781 -142.890625 203.09375 -131.109375 C 208.144531 -119.328125 210.671875 -106.796875 210.671875 -93.515625 L 210.671875 -92.984375 C 210.671875 -79.703125 208.101562 -67.171875 202.96875 -55.390625 C 197.832031 -43.609375 190.835938 -33.332031 181.984375 -24.5625 C 173.128906 -15.800781 162.546875 -8.894531 150.234375 -3.84375 C 137.921875 1.195312 124.59375 3.71875 110.25 3.71875 Z M 110.78125 -42.765625 C 117.863281 -42.765625 124.285156 -44.09375 130.046875 -46.75 C 135.804688 -49.414062 140.722656 -53.003906 144.796875 -57.515625 C 148.867188 -62.035156 152.054688 -67.304688 154.359375 -73.328125 C 156.660156 -79.347656 157.8125 -85.722656 157.8125 -92.453125 L 157.8125 -92.984375 C 157.8125 -99.710938 156.660156 -106.128906 154.359375 -112.234375 C 152.054688 -118.347656 148.820312 -123.664062 144.65625 -128.1875 C 140.5 -132.707031 135.492188 -136.335938 129.640625 -139.078125 C 123.796875 -141.828125 117.332031 -143.203125 110.25 -143.203125 C 103.164062 -143.203125 96.703125 -141.875 90.859375 -139.21875 C 85.015625 -136.5625 80.054688 -132.972656 75.984375 -128.453125 C 71.910156 -123.929688 68.722656 -118.660156 66.421875 -112.640625 C 64.117188 -106.617188 62.96875 -100.242188 62.96875 -93.515625 L 62.96875 -92.984375 C 62.96875 -86.253906 64.117188 -79.832031 66.421875 -73.71875 C 68.722656 -67.613281 71.953125 -62.300781 76.109375 -57.78125 C 80.273438 -53.269531 85.320312 -49.640625 91.25 -46.890625 C 97.1875 -44.140625 103.695312 -42.765625 110.78125 -42.765625 Z M 110.78125 -42.765625 "/></g></g></g></g></g></g><g transform="matrix(1, 0, 0, 1, 202, 2)"><g clip-path="url(#df1969cc54)"><g fill="#f48221" fill-opacity="1"><g transform="translate(201.556703, 65.509794)"><g><path d="M -76.171875 -1.3125 L -1.84375 183.859375 L -58.578125 183.859375 L -100.328125 67.5 L -142.359375 183.859375 L -198.046875 183.859375 L -123.453125 -1.3125 Z M -76.171875 -1.3125 "/></g></g></g></g></g><g clip-path="url(#120e2d5b03)"><g transform="matrix(1, 0, 0, 1, 286, 216)"><g clip-path="url(#afc38c2afb)"><g clip-path="url(#32c1e684c3)"><path fill="#f48221" d="M 0.328125 0.0976562 L 35.101562 0.0976562 L 35.101562 34.46875 L 0.328125 34.46875 Z M 0.328125 0.0976562 " fill-opacity="1" fill-rule="nonzero"/></g></g></g></g><g clip-path="url(#8e8ac30a09)"><g transform="matrix(1, 0, 0, 1, 9, 290)"><g clip-path="url(#4415705a54)"><g fill="#ffffff" fill-opacity="1"><g transform="translate(0.542174, 43.148435)"><g><path d="M 18.921875 0.546875 C 16.566406 0.546875 14.378906 0.117188 12.359375 -0.734375 C 10.335938 -1.585938 8.59375 -2.757812 7.125 -4.25 C 5.65625 -5.738281 4.503906 -7.492188 3.671875 -9.515625 C 2.847656 -11.535156 2.4375 -13.691406 2.4375 -15.984375 L 2.4375 -16.078125 C 2.4375 -18.378906 2.847656 -20.53125 3.671875 -22.53125 C 4.503906 -24.539062 5.65625 -26.300781 7.125 -27.8125 C 8.59375 -29.332031 10.351562 -30.523438 12.40625 -31.390625 C 14.457031 -32.265625 16.722656 -32.703125 19.203125 -32.703125 C 20.703125 -32.703125 22.070312 -32.578125 23.3125 -32.328125 C 24.550781 -32.085938 25.675781 -31.753906 26.6875 -31.328125 C 27.695312 -30.898438 28.628906 -30.378906 29.484375 -29.765625 C 30.347656 -29.148438 31.144531 -28.476562 31.875 -27.75 L 27.375 -22.5625 C 26.125 -23.6875 24.847656 -24.570312 23.546875 -25.21875 C 22.242188 -25.863281 20.78125 -26.1875 19.15625 -26.1875 C 17.8125 -26.1875 16.5625 -25.925781 15.40625 -25.40625 C 14.257812 -24.882812 13.269531 -24.160156 12.4375 -23.234375 C 11.613281 -22.316406 10.972656 -21.253906 10.515625 -20.046875 C 10.054688 -18.835938 9.828125 -17.546875 9.828125 -16.171875 L 9.828125 -16.078125 C 9.828125 -14.703125 10.054688 -13.398438 10.515625 -12.171875 C 10.972656 -10.953125 11.609375 -9.878906 12.421875 -8.953125 C 13.234375 -8.035156 14.210938 -7.304688 15.359375 -6.765625 C 16.515625 -6.234375 17.78125 -5.96875 19.15625 -5.96875 C 20.988281 -5.96875 22.539062 -6.304688 23.8125 -6.984375 C 25.082031 -7.660156 26.347656 -8.578125 27.609375 -9.734375 L 32.109375 -5.1875 C 31.285156 -4.300781 30.425781 -3.503906 29.53125 -2.796875 C 28.644531 -2.097656 27.671875 -1.492188 26.609375 -0.984375 C 25.554688 -0.484375 24.398438 -0.101562 23.140625 0.15625 C 21.890625 0.414062 20.484375 0.546875 18.921875 0.546875 Z M 18.921875 0.546875 "/></g></g></g><g fill="#ffffff" fill-opacity="1"><g transform="translate(51.437733, 43.148435)"><g><path d="M 17.265625 0.5 C 12.953125 0.5 9.554688 -0.691406 7.078125 -3.078125 C 4.597656 -5.460938 3.359375 -9.03125 3.359375 -13.78125 L 3.359375 -32.15625 L 10.421875 -32.15625 L 10.421875 -13.96875 C 10.421875 -11.332031 11.035156 -9.347656 12.265625 -8.015625 C 13.492188 -6.679688 15.191406 -6.015625 17.359375 -6.015625 C 19.535156 -6.015625 21.234375 -6.65625 22.453125 -7.9375 C 23.679688 -9.226562 24.296875 -11.160156 24.296875 -13.734375 L 24.296875 -32.15625 L 31.375 -32.15625 L 31.375 -14.015625 C 31.375 -11.566406 31.046875 -9.4375 30.390625 -7.625 C 29.734375 -5.820312 28.789062 -4.3125 27.5625 -3.09375 C 26.332031 -1.882812 24.84375 -0.984375 23.09375 -0.390625 C 21.351562 0.203125 19.410156 0.5 17.265625 0.5 Z M 17.265625 0.5 "/></g></g></g><g fill="#ffffff" fill-opacity="1"><g transform="translate(103.160031, 43.148435)"><g><path d="M 4.1875 -32.15625 L 11.25 -32.15625 L 11.25 0 L 4.1875 0 Z M 4.1875 -32.15625 "/></g></g></g><g fill="#ffffff" fill-opacity="1"><g transform="translate(135.591931, 43.148435)"><g><path d="M 15.296875 0.453125 C 12.847656 0.453125 10.441406 0.0351562 8.078125 -0.796875 C 5.722656 -1.640625 3.582031 -2.9375 1.65625 -4.6875 L 5.828125 -9.6875 C 7.304688 -8.5 8.816406 -7.550781 10.359375 -6.84375 C 11.898438 -6.132812 13.59375 -5.78125 15.4375 -5.78125 C 16.90625 -5.78125 18.046875 -6.046875 18.859375 -6.578125 C 19.671875 -7.117188 20.078125 -7.863281 20.078125 -8.8125 L 20.078125 -8.90625 C 20.078125 -9.363281 19.988281 -9.769531 19.8125 -10.125 C 19.644531 -10.476562 19.320312 -10.804688 18.84375 -11.109375 C 18.375 -11.421875 17.71875 -11.726562 16.875 -12.03125 C 16.039062 -12.34375 14.945312 -12.664062 13.59375 -13 C 11.96875 -13.394531 10.5 -13.835938 9.1875 -14.328125 C 7.875 -14.816406 6.753906 -15.421875 5.828125 -16.140625 C 4.910156 -16.867188 4.195312 -17.765625 3.6875 -18.828125 C 3.1875 -19.898438 2.9375 -21.234375 2.9375 -22.828125 L 2.9375 -22.921875 C 2.9375 -24.390625 3.210938 -25.710938 3.765625 -26.890625 C 4.316406 -28.078125 5.085938 -29.097656 6.078125 -29.953125 C 7.078125 -30.804688 8.265625 -31.460938 9.640625 -31.921875 C 11.023438 -32.378906 12.539062 -32.609375 14.1875 -32.609375 C 16.550781 -32.609375 18.71875 -32.253906 20.6875 -31.546875 C 22.664062 -30.847656 24.484375 -29.84375 26.140625 -28.53125 L 22.46875 -23.203125 C 21.019531 -24.179688 19.609375 -24.953125 18.234375 -25.515625 C 16.859375 -26.085938 15.484375 -26.375 14.109375 -26.375 C 12.722656 -26.375 11.6875 -26.101562 11 -25.5625 C 10.3125 -25.03125 9.96875 -24.363281 9.96875 -23.5625 L 9.96875 -23.46875 C 9.96875 -22.945312 10.066406 -22.492188 10.265625 -22.109375 C 10.460938 -21.734375 10.820312 -21.390625 11.34375 -21.078125 C 11.863281 -20.773438 12.578125 -20.484375 13.484375 -20.203125 C 14.390625 -19.929688 15.53125 -19.613281 16.90625 -19.25 C 18.53125 -18.820312 19.976562 -18.335938 21.25 -17.796875 C 22.519531 -17.265625 23.585938 -16.625 24.453125 -15.875 C 25.328125 -15.125 25.988281 -14.242188 26.4375 -13.234375 C 26.882812 -12.222656 27.109375 -11.007812 27.109375 -9.59375 L 27.109375 -9.515625 C 27.109375 -7.921875 26.816406 -6.503906 26.234375 -5.265625 C 25.648438 -4.023438 24.835938 -2.984375 23.796875 -2.140625 C 22.753906 -1.296875 21.515625 -0.648438 20.078125 -0.203125 C 18.640625 0.234375 17.046875 0.453125 15.296875 0.453125 Z M 15.296875 0.453125 "/></g></g></g><g fill="#ffffff" fill-opacity="1"><g transform="translate(181.986399, 43.148435)"><g><path d="M 4.1875 -32.15625 L 11.25 -32.15625 L 11.25 0 L 4.1875 0 Z M 4.1875 -32.15625 "/></g></g></g><g fill="#ffffff" fill-opacity="1"><g transform="translate(214.418299, 43.148435)"><g><path d="M 3.859375 -32.15625 L 10.375 -32.15625 L 25.453125 -12.359375 L 25.453125 -32.15625 L 32.4375 -32.15625 L 32.4375 0 L 26.421875 0 L 10.84375 -20.4375 L 10.84375 0 L 3.859375 0 Z M 3.859375 -32.15625 "/></g></g></g><g fill="#ffffff" fill-opacity="1"><g transform="translate(267.702196, 43.148435)"><g><path d="M 3.859375 -32.15625 L 28.109375 -32.15625 L 28.109375 -25.859375 L 10.890625 -25.859375 L 10.890625 -19.34375 L 26.046875 -19.34375 L 26.046875 -13.046875 L 10.890625 -13.046875 L 10.890625 -6.296875 L 28.34375 -6.296875 L 28.34375 0 L 3.859375 0 Z M 3.859375 -32.15625 "/></g></g></g><g fill="#ffffff" fill-opacity="1"><g transform="translate(315.474555, 43.148435)"><g><path d="M 15.296875 0.453125 C 12.847656 0.453125 10.441406 0.0351562 8.078125 -0.796875 C 5.722656 -1.640625 3.582031 -2.9375 1.65625 -4.6875 L 5.828125 -9.6875 C 7.304688 -8.5 8.816406 -7.550781 10.359375 -6.84375 C 11.898438 -6.132812 13.59375 -5.78125 15.4375 -5.78125 C 16.90625 -5.78125 18.046875 -6.046875 18.859375 -6.578125 C 19.671875 -7.117188 20.078125 -7.863281 20.078125 -8.8125 L 20.078125 -8.90625 C 20.078125 -9.363281 19.988281 -9.769531 19.8125 -10.125 C 19.644531 -10.476562 19.320312 -10.804688 18.84375 -11.109375 C 18.375 -11.421875 17.71875 -11.726562 16.875 -12.03125 C 16.039062 -12.34375 14.945312 -12.664062 13.59375 -13 C 11.96875 -13.394531 10.5 -13.835938 9.1875 -14.328125 C 7.875 -14.816406 6.753906 -15.421875 5.828125 -16.140625 C 4.910156 -16.867188 4.195312 -17.765625 3.6875 -18.828125 C 3.1875 -19.898438 2.9375 -21.234375 2.9375 -22.828125 L 2.9375 -22.921875 C 2.9375 -24.390625 3.210938 -25.710938 3.765625 -26.890625 C 4.316406 -28.078125 5.085938 -29.097656 6.078125 -29.953125 C 7.078125 -30.804688 8.265625 -31.460938 9.640625 -31.921875 C 11.023438 -32.378906 12.539062 -32.609375 14.1875 -32.609375 C 16.550781 -32.609375 18.71875 -32.253906 20.6875 -31.546875 C 22.664062 -30.847656 24.484375 -29.84375 26.140625 -28.53125 L 22.46875 -23.203125 C 21.019531 -24.179688 19.609375 -24.953125 18.234375 -25.515625 C 16.859375 -26.085938 15.484375 -26.375 14.109375 -26.375 C 12.722656 -26.375 11.6875 -26.101562 11 -25.5625 C 10.3125 -25.03125 9.96875 -24.363281 9.96875 -23.5625 L 9.96875 -23.46875 C 9.96875 -22.945312 10.066406 -22.492188 10.265625 -22.109375 C 10.460938 -21.734375 10.820312 -21.390625 11.34375 -21.078125 C 11.863281 -20.773438 12.578125 -20.484375 13.484375 -20.203125 C 14.390625 -19.929688 15.53125 -19.613281 16.90625 -19.25 C 18.53125 -18.820312 19.976562 -18.335938 21.25 -17.796875 C 22.519531 -17.265625 23.585938 -16.625 24.453125 -15.875 C 25.328125 -15.125 25.988281 -14.242188 26.4375 -13.234375 C 26.882812 -12.222656 27.109375 -11.007812 27.109375 -9.59375 L 27.109375 -9.515625 C 27.109375 -7.921875 26.816406 -6.503906 26.234375 -5.265625 C 25.648438 -4.023438 24.835938 -2.984375 23.796875 -2.140625 C 22.753906 -1.296875 21.515625 -0.648438 20.078125 -0.203125 C 18.640625 0.234375 17.046875 0.453125 15.296875 0.453125 Z M 15.296875 0.453125 "/></g></g></g><g fill="#ffffff" fill-opacity="1"><g transform="translate(361.869024, 43.148435)"><g/></g></g><g fill="#ffffff" fill-opacity="1"><g transform="translate(392.647445, 43.148435)"><g><path d="M 21.78125 -3.125 C 20.457031 -2.050781 19.019531 -1.1875 17.46875 -0.53125 C 15.925781 0.125 14.222656 0.453125 12.359375 0.453125 C 10.828125 0.453125 9.398438 0.238281 8.078125 -0.1875 C 6.765625 -0.613281 5.625 -1.234375 4.65625 -2.046875 C 3.695312 -2.859375 2.941406 -3.828125 2.390625 -4.953125 C 1.835938 -6.085938 1.5625 -7.375 1.5625 -8.8125 L 1.5625 -8.90625 C 1.5625 -10.957031 2.097656 -12.710938 3.171875 -14.171875 C 4.242188 -15.628906 5.789062 -16.816406 7.8125 -17.734375 C 7.007812 -18.835938 6.429688 -19.910156 6.078125 -20.953125 C 5.734375 -21.992188 5.5625 -23.0625 5.5625 -24.15625 L 5.5625 -24.25 C 5.5625 -25.351562 5.773438 -26.410156 6.203125 -27.421875 C 6.628906 -28.429688 7.253906 -29.328125 8.078125 -30.109375 C 8.910156 -30.890625 9.929688 -31.515625 11.140625 -31.984375 C 12.347656 -32.460938 13.734375 -32.703125 15.296875 -32.703125 C 16.671875 -32.703125 17.910156 -32.492188 19.015625 -32.078125 C 20.117188 -31.671875 21.066406 -31.097656 21.859375 -30.359375 C 22.660156 -29.628906 23.273438 -28.773438 23.703125 -27.796875 C 24.128906 -26.816406 24.34375 -25.757812 24.34375 -24.625 L 24.34375 -24.53125 C 24.34375 -23.457031 24.179688 -22.484375 23.859375 -21.609375 C 23.535156 -20.734375 23.078125 -19.957031 22.484375 -19.28125 C 21.890625 -18.613281 21.175781 -18.019531 20.34375 -17.5 C 19.519531 -16.976562 18.601562 -16.519531 17.59375 -16.125 L 21.859375 -11.859375 C 22.378906 -12.679688 22.898438 -13.554688 23.421875 -14.484375 C 23.941406 -15.421875 24.460938 -16.378906 24.984375 -17.359375 L 30.1875 -14.515625 C 29.570312 -13.378906 28.910156 -12.226562 28.203125 -11.0625 C 27.503906 -9.90625 26.753906 -8.789062 25.953125 -7.71875 L 30.6875 -2.984375 L 25.5 0.640625 Z M 13.921875 -19.84375 C 15.328125 -20.363281 16.390625 -20.953125 17.109375 -21.609375 C 17.828125 -22.265625 18.1875 -23.101562 18.1875 -24.125 L 18.1875 -24.203125 C 18.1875 -25.128906 17.898438 -25.859375 17.328125 -26.390625 C 16.765625 -26.921875 16.039062 -27.1875 15.15625 -27.1875 C 14.207031 -27.1875 13.445312 -26.890625 12.875 -26.296875 C 12.3125 -25.703125 12.03125 -24.914062 12.03125 -23.9375 L 12.03125 -23.84375 C 12.03125 -23.132812 12.175781 -22.484375 12.46875 -21.890625 C 12.757812 -21.296875 13.242188 -20.613281 13.921875 -19.84375 Z M 13.1875 -5.328125 C 13.976562 -5.328125 14.765625 -5.488281 15.546875 -5.8125 C 16.328125 -6.132812 17.085938 -6.585938 17.828125 -7.171875 L 11.671875 -13.40625 C 10.597656 -12.863281 9.832031 -12.222656 9.375 -11.484375 C 8.914062 -10.742188 8.6875 -9.976562 8.6875 -9.1875 L 8.6875 -9.09375 C 8.6875 -7.957031 9.101562 -7.046875 9.9375 -6.359375 C 10.78125 -5.671875 11.863281 -5.328125 13.1875 -5.328125 Z M 13.1875 -5.328125 "/></g></g></g><g fill="#ffffff" fill-opacity="1"><g transform="translate(441.613962, 43.148435)"><g/></g></g><g fill="#ffffff" fill-opacity="1"><g transform="translate(472.392361, 43.148435)"><g><path d="M 3.859375 -32.15625 L 11.484375 -32.15625 L 19.9375 -18.5625 L 28.390625 -32.15625 L 36.015625 -32.15625 L 36.015625 0 L 28.984375 0 L 28.984375 -21 L 19.9375 -7.265625 L 19.75 -7.265625 L 10.796875 -20.859375 L 10.796875 0 L 3.859375 0 Z M 3.859375 -32.15625 "/></g></g></g><g fill="#ffffff" fill-opacity="1"><g transform="translate(529.258756, 43.148435)"><g><path d="M 3.859375 -32.15625 L 28.109375 -32.15625 L 28.109375 -25.859375 L 10.890625 -25.859375 L 10.890625 -19.34375 L 26.046875 -19.34375 L 26.046875 -13.046875 L 10.890625 -13.046875 L 10.890625 -6.296875 L 28.34375 -6.296875 L 28.34375 0 L 3.859375 0 Z M 3.859375 -32.15625 "/></g></g></g><g fill="#ffffff" fill-opacity="1"><g transform="translate(577.031115, 43.148435)"><g><path d="M 3.859375 -32.15625 L 10.375 -32.15625 L 25.453125 -12.359375 L 25.453125 -32.15625 L 32.4375 -32.15625 L 32.4375 0 L 26.421875 0 L 10.84375 -20.4375 L 10.84375 0 L 3.859375 0 Z M 3.859375 -32.15625 "/></g></g></g><g fill="#ffffff" fill-opacity="1"><g transform="translate(630.315037, 43.148435)"><g><path d="M 17.265625 0.5 C 12.953125 0.5 9.554688 -0.691406 7.078125 -3.078125 C 4.597656 -5.460938 3.359375 -9.03125 3.359375 -13.78125 L 3.359375 -32.15625 L 10.421875 -32.15625 L 10.421875 -13.96875 C 10.421875 -11.332031 11.035156 -9.347656 12.265625 -8.015625 C 13.492188 -6.679688 15.191406 -6.015625 17.359375 -6.015625 C 19.535156 -6.015625 21.234375 -6.65625 22.453125 -7.9375 C 23.679688 -9.226562 24.296875 -11.160156 24.296875 -13.734375 L 24.296875 -32.15625 L 31.375 -32.15625 L 31.375 -14.015625 C 31.375 -11.566406 31.046875 -9.4375 30.390625 -7.625 C 29.734375 -5.820312 28.789062 -4.3125 27.5625 -3.09375 C 26.332031 -1.882812 24.84375 -0.984375 23.09375 -0.390625 C 21.351562 0.203125 19.410156 0.5 17.265625 0.5 Z M 17.265625 0.5 "/></g></g></g><g fill="#ffffff" fill-opacity="1"><g transform="translate(682.037335, 43.148435)"><g><path d="M 4.1875 -32.15625 L 11.25 -32.15625 L 11.25 0 L 4.1875 0 Z M 4.1875 -32.15625 "/></g></g></g><g fill="#ffffff" fill-opacity="1"><g transform="translate(714.46921, 43.148435)"><g><path d="M 15.296875 0.453125 C 12.847656 0.453125 10.441406 0.0351562 8.078125 -0.796875 C 5.722656 -1.640625 3.582031 -2.9375 1.65625 -4.6875 L 5.828125 -9.6875 C 7.304688 -8.5 8.816406 -7.550781 10.359375 -6.84375 C 11.898438 -6.132812 13.59375 -5.78125 15.4375 -5.78125 C 16.90625 -5.78125 18.046875 -6.046875 18.859375 -6.578125 C 19.671875 -7.117188 20.078125 -7.863281 20.078125 -8.8125 L 20.078125 -8.90625 C 20.078125 -9.363281 19.988281 -9.769531 19.8125 -10.125 C 19.644531 -10.476562 19.320312 -10.804688 18.84375 -11.109375 C 18.375 -11.421875 17.71875 -11.726562 16.875 -12.03125 C 16.039062 -12.34375 14.945312 -12.664062 13.59375 -13 C 11.96875 -13.394531 10.5 -13.835938 9.1875 -14.328125 C 7.875 -14.816406 6.753906 -15.421875 5.828125 -16.140625 C 4.910156 -16.867188 4.195312 -17.765625 3.6875 -18.828125 C 3.1875 -19.898438 2.9375 -21.234375 2.9375 -22.828125 L 2.9375 -22.921875 C 2.9375 -24.390625 3.210938 -25.710938 3.765625 -26.890625 C 4.316406 -28.078125 5.085938 -29.097656 6.078125 -29.953125 C 7.078125 -30.804688 8.265625 -31.460938 9.640625 -31.921875 C 11.023438 -32.378906 12.539062 -32.609375 14.1875 -32.609375 C 16.550781 -32.609375 18.71875 -32.253906 20.6875 -31.546875 C 22.664062 -30.847656 24.484375 -29.84375 26.140625 -28.53125 L 22.46875 -23.203125 C 21.019531 -24.179688 19.609375 -24.953125 18.234375 -25.515625 C 16.859375 -26.085938 15.484375 -26.375 14.109375 -26.375 C 12.722656 -26.375 11.6875 -26.101562 11 -25.5625 C 10.3125 -25.03125 9.96875 -24.363281 9.96875 -23.5625 L 9.96875 -23.46875 C 9.96875 -22.945312 10.066406 -22.492188 10.265625 -22.109375 C 10.460938 -21.734375 10.820312 -21.390625 11.34375 -21.078125 C 11.863281 -20.773438 12.578125 -20.484375 13.484375 -20.203125 C 14.390625 -19.929688 15.53125 -19.613281 16.90625 -19.25 C 18.53125 -18.820312 19.976562 -18.335938 21.25 -17.796875 C 22.519531 -17.265625 23.585938 -16.625 24.453125 -15.875 C 25.328125 -15.125 25.988281 -14.242188 26.4375 -13.234375 C 26.882812 -12.222656 27.109375 -11.007812 27.109375 -9.59375 L 27.109375 -9.515625 C 27.109375 -7.921875 26.816406 -6.503906 26.234375 -5.265625 C 25.648438 -4.023438 24.835938 -2.984375 23.796875 -2.140625 C 22.753906 -1.296875 21.515625 -0.648438 20.078125 -0.203125 C 18.640625 0.234375 17.046875 0.453125 15.296875 0.453125 Z M 15.296875 0.453125 "/></g></g></g><g fill="#ffffff" fill-opacity="1"><g transform="translate(760.863701, 43.148435)"><g><path d="M 3.859375 -32.15625 L 28.109375 -32.15625 L 28.109375 -25.859375 L 10.890625 -25.859375 L 10.890625 -19.34375 L 26.046875 -19.34375 L 26.046875 -13.046875 L 10.890625 -13.046875 L 10.890625 -6.296875 L 28.34375 -6.296875 L 28.34375 0 L 3.859375 0 Z M 3.859375 -32.15625 "/></g></g></g><g fill="#ffffff" fill-opacity="1"><g transform="translate(808.63606, 43.148435)"><g><path d="M 3.859375 -32.15625 L 18.5625 -32.15625 C 22.632812 -32.15625 25.757812 -31.066406 27.9375 -28.890625 C 29.769531 -27.054688 30.6875 -24.609375 30.6875 -21.546875 L 30.6875 -21.453125 C 30.6875 -18.847656 30.050781 -16.726562 28.78125 -15.09375 C 27.507812 -13.457031 25.847656 -12.253906 23.796875 -11.484375 L 31.65625 0 L 23.375 0 L 16.484375 -10.296875 L 10.9375 -10.296875 L 10.9375 0 L 3.859375 0 Z M 18.09375 -16.53125 C 19.84375 -16.53125 21.179688 -16.941406 22.109375 -17.765625 C 23.046875 -18.597656 23.515625 -19.703125 23.515625 -21.078125 L 23.515625 -21.171875 C 23.515625 -22.703125 23.023438 -23.847656 22.046875 -24.609375 C 21.066406 -25.378906 19.707031 -25.765625 17.96875 -25.765625 L 10.9375 -25.765625 L 10.9375 -16.53125 Z M 18.09375 -16.53125 "/></g></g></g><g fill="#ffffff" fill-opacity="1"><g transform="translate(858.84273, 43.148435)"><g><path d="M 4.1875 -32.15625 L 11.25 -32.15625 L 11.25 0 L 4.1875 0 Z M 4.1875 -32.15625 "/></g></g></g><g fill="#ffffff" fill-opacity="1"><g transform="translate(891.274561, 43.148435)"><g><path d="M 3.859375 -32.15625 L 28.109375 -32.15625 L 28.109375 -25.859375 L 10.890625 -25.859375 L 10.890625 -19.34375 L 26.046875 -19.34375 L 26.046875 -13.046875 L 10.890625 -13.046875 L 10.890625 -6.296875 L 28.34375 -6.296875 L 28.34375 0 L 3.859375 0 Z M 3.859375 -32.15625 "/></g></g></g><g fill="#ffffff" fill-opacity="1"><g transform="translate(939.04692, 43.148435)"><g><path d="M 15.296875 0.453125 C 12.847656 0.453125 10.441406 0.0351562 8.078125 -0.796875 C 5.722656 -1.640625 3.582031 -2.9375 1.65625 -4.6875 L 5.828125 -9.6875 C 7.304688 -8.5 8.816406 -7.550781 10.359375 -6.84375 C 11.898438 -6.132812 13.59375 -5.78125 15.4375 -5.78125 C 16.90625 -5.78125 18.046875 -6.046875 18.859375 -6.578125 C 19.671875 -7.117188 20.078125 -7.863281 20.078125 -8.8125 L 20.078125 -8.90625 C 20.078125 -9.363281 19.988281 -9.769531 19.8125 -10.125 C 19.644531 -10.476562 19.320312 -10.804688 18.84375 -11.109375 C 18.375 -11.421875 17.71875 -11.726562 16.875 -12.03125 C 16.039062 -12.34375 14.945312 -12.664062 13.59375 -13 C 11.96875 -13.394531 10.5 -13.835938 9.1875 -14.328125 C 7.875 -14.816406 6.753906 -15.421875 5.828125 -16.140625 C 4.910156 -16.867188 4.195312 -17.765625 3.6875 -18.828125 C 3.1875 -19.898438 2.9375 -21.234375 2.9375 -22.828125 L 2.9375 -22.921875 C 2.9375 -24.390625 3.210938 -25.710938 3.765625 -26.890625 C 4.316406 -28.078125 5.085938 -29.097656 6.078125 -29.953125 C 7.078125 -30.804688 8.265625 -31.460938 9.640625 -31.921875 C 11.023438 -32.378906 12.539062 -32.609375 14.1875 -32.609375 C 16.550781 -32.609375 18.71875 -32.253906 20.6875 -31.546875 C 22.664062 -30.847656 24.484375 -29.84375 26.140625 -28.53125 L 22.46875 -23.203125 C 21.019531 -24.179688 19.609375 -24.953125 18.234375 -25.515625 C 16.859375 -26.085938 15.484375 -26.375 14.109375 -26.375 C 12.722656 -26.375 11.6875 -26.101562 11 -25.5625 C 10.3125 -25.03125 9.96875 -24.363281 9.96875 -23.5625 L 9.96875 -23.46875 C 9.96875 -22.945312 10.066406 -22.492188 10.265625 -22.109375 C 10.460938 -21.734375 10.820312 -21.390625 11.34375 -21.078125 C 11.863281 -20.773438 12.578125 -20.484375 13.484375 -20.203125 C 14.390625 -19.929688 15.53125 -19.613281 16.90625 -19.25 C 18.53125 -18.820312 19.976562 -18.335938 21.25 -17.796875 C 22.519531 -17.265625 23.585938 -16.625 24.453125 -15.875 C 25.328125 -15.125 25.988281 -14.242188 26.4375 -13.234375 C 26.882812 -12.222656 27.109375 -11.007812 27.109375 -9.59375 L 27.109375 -9.515625 C 27.109375 -7.921875 26.816406 -6.503906 26.234375 -5.265625 C 25.648438 -4.023438 24.835938 -2.984375 23.796875 -2.140625 C 22.753906 -1.296875 21.515625 -0.648438 20.078125 -0.203125 C 18.640625 0.234375 17.046875 0.453125 15.296875 0.453125 Z M 15.296875 0.453125 "/></g></g></g></g></g></g></g></g></svg>